<svg width="15" height="14" viewBox="0 0 15 14" fill="none" xmlns="http://www.w3.org/2000/svg">
<path d="M13.4582 3.94486C13.4677 4.0781 13.4677 4.21137 13.4677 4.34461C13.4677 8.40869 10.3744 13.0915 4.72083 13.0915C2.97906 13.0915 1.36105 12.587 0 11.7114C0.247472 11.7399 0.485393 11.7495 0.742386 11.7495C2.17955 11.7495 3.50254 11.2641 4.55902 10.436C3.20749 10.4074 2.07487 9.5223 1.68464 8.30401C1.87501 8.33255 2.06535 8.35159 2.26524 8.35159C2.54125 8.35159 2.81729 8.31351 3.07425 8.24691C1.66562 7.96136 0.609114 6.72406 0.609114 5.22976V5.19171C1.01836 5.42013 1.49429 5.5629 1.9987 5.58191C1.17065 5.02987 0.628157 4.08762 0.628157 3.02162C0.628157 2.45056 0.780413 1.92708 1.04693 1.47023C2.56026 3.33571 4.83503 4.55397 7.38577 4.68724C7.33819 4.45881 7.30963 4.22089 7.30963 3.98294C7.30963 2.28876 8.6802 0.908691 10.3839 0.908691C11.269 0.908691 12.0685 1.27988 12.6301 1.87951C13.3249 1.74626 13.9911 1.48927 14.5812 1.13712C14.3528 1.85097 13.8674 2.45059 13.2297 2.83128C13.8484 2.76469 14.448 2.59333 15 2.35541C14.5813 2.96452 14.0578 3.50701 13.4582 3.94486Z" fill="black"/>
</svg>
